<svg width="32" height="32" viewBox="0 0 32 32" fill="none" xmlns="http://www.w3.org/2000/svg">
<path d="M12.5367 6.39944L7.37316 3.4108L2.20963 0.422353C1.98569 0.292787 1.73165 0.22459 1.47309 0.224609C1.21452 0.224629 0.960515 0.292864 0.736591 0.422465C0.512666 0.552066 0.326711 0.738467 0.197412 0.962932C0.0681129 1.1874 3.75717e-05 1.44202 4.72868e-09 1.70122V13.6558C-2.07126e-05 13.915 0.0680332 14.1697 0.197318 14.3942C0.326603 14.6187 0.512553 14.8051 0.736497 14.9347C0.960441 15.0643 1.21448 15.1325 1.47306 15.1325C1.73165 15.1325 1.9857 15.0643 2.20963 14.9346L7.37316 11.9462L12.5367 8.95756C12.7607 8.82799 12.9468 8.64157 13.0762 8.41704C13.2055 8.19251 13.2736 7.93779 13.2736 7.6785C13.2736 7.41921 13.2055 7.16449 13.0762 6.93996C12.9468 6.71543 12.7607 6.529 12.5367 6.39944Z" fill="#F02D5E"/>
<path d="M12.5367 23.0425L7.37314 20.054L2.20942 17.0656C1.98552 16.936 1.73151 16.8677 1.47295 16.8677C1.21438 16.8677 0.960356 16.9359 0.736427 17.0655C0.512498 17.1951 0.32657 17.3815 0.197295 17.6059C0.0680199 17.8304 -2.59207e-05 18.0851 7.40696e-09 18.3443V30.2988C-1.27724e-06 30.558 0.0680431 30.8126 0.197318 31.0371C0.326593 31.2616 0.512536 31.448 0.736451 31.5776C0.960365 31.7072 1.21436 31.7754 1.47292 31.7755C1.73149 31.7755 1.98549 31.7073 2.20942 31.5777L7.37314 28.5892L12.5367 25.6008C12.7607 25.4712 12.9468 25.2848 13.0761 25.0602C13.2055 24.8357 13.2736 24.5809 13.2736 24.3216C13.2736 24.0623 13.2055 23.8076 13.0761 23.5831C12.9468 23.3585 12.7607 23.1721 12.5367 23.0425Z" fill="#F02D5E"/>
<path d="M27.2633 14.7211L22.0997 11.7325L16.9362 8.74403C16.7123 8.6144 16.4582 8.54615 16.1997 8.54614C15.9411 8.54613 15.687 8.61436 15.4631 8.74397C15.2391 8.87359 15.0532 9.06001 14.9239 9.28451C14.7946 9.50901 14.7265 9.76367 14.7266 10.0229V21.9774C14.7266 22.2366 14.7947 22.4913 14.924 22.7157C15.0533 22.9402 15.2393 23.1266 15.4632 23.2562C15.6871 23.3858 15.9411 23.454 16.1997 23.4541C16.4582 23.4541 16.7123 23.3859 16.9362 23.2563L22.0997 20.2677L27.2633 17.2792C27.4873 17.1497 27.6734 16.9632 27.8027 16.7387C27.9321 16.5142 28.0002 16.2595 28.0002 16.0002C28.0002 15.7409 27.9321 15.4862 27.8027 15.2616C27.6734 15.0371 27.4873 14.8507 27.2633 14.7211Z" fill="#F02D5E"/>
</svg>
